<svg width="1024" height="237" viewBox="0 0 1024 237" fill="none" xmlns="http://www.w3.org/2000/svg">
<g clip-path="url(#clip0_2337_20992)">
<path d="M591.112 214.507H581.566L580.347 208.617L579.129 204.352L570.395 204.149L562.676 204.352L561.458 208.008L560.239 214.304H550.896L566.129 169.421H577.301L591.112 214.507ZM577.097 197.244L571.816 178.56H571.207L565.114 197.244L571.207 197.447L577.097 197.244Z" fill="white"/>
<path d="M637.828 174.701C641.281 178.357 643.109 183.637 643.109 190.339C643.109 198.26 641.078 204.353 637.219 208.617C633.359 212.882 627.672 214.913 620.563 214.913C618.329 214.913 615.689 214.913 612.642 214.71C609.595 214.71 606.955 214.507 604.721 214.304L605.127 200.9L604.721 169.421L622.798 169.218C629.297 169.218 634.375 171.046 637.828 174.701ZM633.156 192.573C633.156 187.09 632.344 183.028 630.516 180.591C628.688 178.154 625.844 176.935 622.188 176.935C619.751 176.935 617.11 177.138 614.267 177.341L613.861 200.494L614.064 207.399C617.314 207.805 619.954 207.805 622.188 207.805C629.5 207.805 633.156 202.728 633.156 192.573Z" fill="white"/>
<path d="M676.216 214.507H664.842L651.03 169.624H660.577L661.592 175.514L670.123 205.774H670.732L680.481 176.123L681.7 169.624H691.043L676.216 214.507Z" fill="white"/>
<path d="M734.712 174.701C738.165 178.56 739.79 184.043 739.79 191.152C739.79 198.869 737.962 204.759 734.103 209.024C730.447 213.289 725.166 215.319 718.26 215.319C711.964 215.319 707.089 213.289 703.636 209.43C700.183 205.571 698.558 199.885 698.558 192.776C698.558 185.262 700.386 179.372 704.042 175.311C707.698 171.249 712.979 169.218 719.885 169.218C726.385 169.015 731.259 170.843 734.712 174.701ZM711.151 179.982C709.526 182.216 708.714 186.074 708.714 191.355C708.714 197.447 709.526 201.712 711.151 204.149C712.776 206.79 715.62 208.008 719.276 208.008C722.932 208.008 725.775 206.79 727.4 204.556C729.025 202.119 729.838 198.26 729.838 192.979C729.838 187.09 729.025 182.825 727.4 180.388C725.775 177.951 722.932 176.529 719.276 176.529C715.417 176.529 712.776 177.748 711.151 179.982Z" fill="white"/>
<path d="M787.318 171.858L785.287 180.388L784.272 180.591C782.037 179.372 780.006 178.357 778.178 177.748C776.35 177.138 774.522 176.935 772.491 176.935C768.429 176.935 765.382 178.154 763.351 180.591C761.523 183.028 760.508 187.09 760.508 192.776C760.508 196.432 760.914 199.478 761.726 201.712C762.539 203.946 763.757 205.571 765.585 206.587C767.21 207.602 769.648 208.008 772.491 208.008C773.507 208.008 774.319 208.008 775.335 207.805C776.147 207.602 777.163 207.399 778.585 206.993L778.788 203.134L778.585 196.026L787.318 195.417L787.115 201.712L787.318 212.679C781.631 214.507 776.554 215.523 771.882 215.523C764.976 215.523 759.695 213.695 756.039 209.836C752.586 205.977 750.758 200.494 750.758 193.386C750.758 185.668 752.789 179.575 756.852 175.514C760.914 171.452 766.804 169.421 774.116 169.421C778.991 169.015 783.459 170.03 787.318 171.858Z" fill="white"/>
<path d="M837.487 214.507H827.941L826.925 208.617L825.706 204.352L816.973 204.149L809.254 204.352L808.036 208.008L806.817 214.304H797.474L812.707 169.421H823.878L837.487 214.507ZM823.675 197.244L818.394 178.56H817.785L811.692 197.244L817.785 197.447L823.675 197.244Z" fill="white"/>
<path d="M884.203 174.701C887.656 178.357 889.484 183.637 889.484 190.339C889.484 198.26 887.452 204.353 883.593 208.617C879.734 212.882 874.047 214.913 866.735 214.913C864.501 214.913 861.86 214.913 858.814 214.71C855.767 214.71 853.127 214.507 850.892 214.304L851.299 200.9L850.892 169.421L868.969 169.218C875.672 169.218 880.75 171.046 884.203 174.701ZM879.531 192.573C879.531 187.09 878.719 183.028 876.891 180.591C875.063 178.154 872.219 176.935 868.563 176.935C866.126 176.935 863.485 177.138 860.642 177.341L860.236 200.494L860.439 207.399C863.688 207.805 866.329 207.805 868.563 207.805C875.875 207.805 879.531 202.728 879.531 192.573Z" fill="white"/>
<path d="M936.199 174.701C939.652 178.56 941.277 184.043 941.277 191.152C941.277 198.869 939.449 204.759 935.59 209.024C931.934 213.289 926.653 215.319 919.747 215.319C913.451 215.319 908.576 213.289 905.123 209.43C901.67 205.571 900.045 199.885 900.045 192.776C900.045 185.262 901.873 179.372 905.529 175.311C909.185 171.249 914.466 169.218 921.372 169.218C928.075 169.015 932.95 170.843 936.199 174.701ZM912.638 179.982C911.013 182.216 910.201 186.074 910.201 191.355C910.201 197.447 911.013 201.712 912.638 204.149C914.263 206.79 917.107 208.008 920.763 208.008C924.419 208.008 927.262 206.79 928.887 204.556C930.512 202.119 931.325 198.26 931.325 192.979C931.325 187.09 930.512 182.825 928.887 180.388C927.262 177.951 924.419 176.529 920.763 176.529C917.107 176.529 914.466 177.748 912.638 179.982Z" fill="white"/>
<path d="M981.493 171.249L979.868 179.372L978.447 179.982C976.822 178.966 975.197 177.951 973.572 177.341C971.947 176.732 970.322 176.326 968.901 176.326C967.073 176.326 965.651 176.732 964.432 177.748C963.213 178.763 962.807 179.982 962.807 181.2C962.807 182.622 963.416 183.637 964.635 184.653C965.854 185.668 967.885 186.684 970.525 187.902C973.166 189.121 975.197 190.136 976.822 191.152C978.447 192.167 979.868 193.386 980.884 195.213C982.103 196.838 982.509 198.869 982.509 201.306C982.509 203.946 981.9 206.18 980.478 208.414C979.056 210.445 977.025 212.273 974.588 213.492C971.947 214.71 969.104 215.319 965.651 215.319C961.182 215.319 956.714 214.304 952.245 212.476L953.667 203.743L954.683 203.134C956.511 204.759 958.542 205.977 960.776 206.79C963.01 207.602 965.041 208.008 966.666 208.008C968.697 208.008 970.322 207.602 971.541 206.586C972.76 205.571 973.166 204.352 973.166 202.931C973.166 201.509 972.556 200.291 971.338 199.275C970.119 198.26 968.088 197.244 965.448 195.823C963.01 194.604 960.979 193.589 959.354 192.776C957.729 191.761 956.511 190.542 955.292 188.918C954.276 187.293 953.667 185.262 953.667 183.028C953.667 180.388 954.277 177.951 955.698 175.92C957.12 173.889 958.948 172.061 961.588 170.842C964.026 169.624 966.869 169.015 970.119 169.015C973.978 169.015 977.837 169.827 981.493 171.249Z" fill="white"/>
<path d="M58.3493 97.9326H95.1126V111.743H41.2879V18.1179H58.3493V97.9326Z" fill="white"/>
<path d="M110.346 77.4205V18.1179H127.407V75.3896C127.407 91.6368 135.126 99.5574 148.734 99.5574C162.749 99.5574 169.655 91.6369 169.655 75.7958V18.321H186.716V77.2174C186.716 100.573 173.514 113.774 148.125 113.774C123.345 113.368 110.346 100.573 110.346 77.4205Z" fill="white"/>
<path d="M209.668 111.743V18.1179H226.729V111.743H209.668Z" fill="white"/>
<path d="M246.431 88.7935L262.883 84.5286C264.711 93.6677 272.632 99.3543 284.616 99.3543C294.772 99.3543 300.865 95.2925 300.865 87.7781C300.865 82.2946 297.818 79.6545 287.866 75.7957L269.18 69.0937C255.977 64.4226 249.275 56.299 249.275 44.3167C249.275 35.1776 252.727 28.4756 259.43 23.8045C266.133 19.1334 274.257 16.6963 284.007 16.6963C298.631 16.6963 314.27 22.789 315.895 41.6764L300.256 45.7383C298.834 35.7868 292.741 30.9126 281.976 30.9126C273.242 30.9126 266.742 34.7714 266.742 41.8795C266.742 47.1599 271.008 51.2217 279.335 54.2681L295.787 59.7516C310.614 64.6258 318.13 73.5617 318.13 85.7472C318.13 93.8708 314.88 100.573 308.38 105.853C302.084 110.93 293.147 113.571 282.179 113.571C261.868 113.164 249.071 104.228 246.431 88.7935Z" fill="white"/>
<path d="M533.428 63.6104C533.428 32.3344 549.677 15.6809 577.504 15.6809C605.33 15.6809 621.985 32.3344 621.985 62.798C621.985 78.6391 617.923 90.6215 609.798 99.3544C601.674 108.087 590.706 112.352 577.097 112.352C550.083 112.555 533.428 95.0895 533.428 63.6104ZM604.517 63.2042C604.517 41.0673 594.971 29.6942 577.504 29.6942C560.442 29.6942 550.896 40.8642 550.896 63.6104C550.896 86.3566 560.645 98.542 577.3 98.542C594.159 98.542 604.517 85.7473 604.517 63.2042Z" fill="white"/>
<path d="M712.776 97.7296L711.761 112.149C699.168 112.149 688.606 109.306 681.903 105.853C678.653 104.025 675.607 101.791 672.763 99.1512C667.482 93.4647 665.248 89.4029 662.404 83.1071H656.514V110.93H639.453V17.3057H666.06C694.496 17.3057 708.917 28.2726 708.917 50.2064C708.917 68.8907 696.933 79.6545 678.247 82.2947C685.559 91.2307 697.746 97.5265 712.776 97.7296ZM656.717 31.1158V69.7031H666.873C681.7 69.7031 691.856 64.2196 691.856 51.2218C691.856 37.8178 683.731 31.3189 667.482 31.3189H656.717V31.1158Z" fill="white"/>
<path d="M888.874 31.1158H849.674V61.1733H878.922V74.1711H849.674V96.9173H888.874V110.727H832.612V17.1025H888.874V31.1158Z" fill="white"/>
<path d="M906.342 87.9813L922.794 83.7164C924.622 92.8555 932.543 98.542 944.527 98.542C954.683 98.542 960.776 94.4802 960.776 86.9658C960.776 81.4824 957.729 78.8422 947.777 74.9835L929.09 68.2814C915.888 63.6104 909.185 55.4868 909.185 43.5044C909.185 34.3653 912.638 27.6633 919.341 22.9922C926.044 18.3211 934.168 15.884 943.918 15.884C958.542 15.884 974.181 21.9767 975.806 40.8642L960.167 44.926C958.745 34.9745 952.651 30.1004 941.886 30.1004C933.153 30.1004 926.653 33.9591 926.653 41.0673C926.653 46.3476 930.918 50.4095 939.246 53.4558L955.698 58.9393C970.525 63.8134 978.041 72.7495 978.041 84.9349C978.041 93.0586 974.791 99.7605 968.291 105.041C961.995 110.118 953.058 112.758 942.09 112.758C921.778 112.555 908.982 103.416 906.342 87.9813Z" fill="white"/>
<path d="M492.4 16.2903H487.119L462.948 73.765L440.403 16.2903H435.122L429.232 29.8974L437.966 51.425L460.105 106.056H464.98L488.134 49.8002L510.477 111.54H527.132L492.4 16.2903Z" fill="white"/>
<path d="M798.286 110.93L791.584 95.9017H748.93L742.634 110.93H726.588L768.226 16.8994H771.882L814.332 110.93H798.286ZM754.414 83.3101H786.1L770.054 46.9568L754.414 83.3101Z" fill="white"/>
<path d="M382.719 94.277L376.626 80.4668H357.33L379.266 29.8972L373.579 16.8994H368.704L327.066 110.93H344.128L351.44 94.277H382.719Z" fill="white"/>
<path d="M425.373 40.458L397.75 111.743H416.639L434.31 63.8135L425.373 40.458Z" fill="url(#paint0_linear_2337_20992)"/>
<path d="M383.938 40.2549L375.407 60.7671L397.343 111.743H416.03L383.938 40.2549Z" fill="url(#paint1_linear_2337_20992)"/>
</g>
<defs>
<linearGradient id="paint0_linear_2337_20992" x1="401.482" y1="105.505" x2="430.598" y2="61.4773" gradientUnits="userSpaceOnUse">
<stop offset="0.1312" stop-color="#651241"/>
<stop offset="0.1731" stop-color="#6E2B43"/>
<stop offset="0.3943" stop-color="#AA6B3D"/>
<stop offset="0.5528" stop-color="#D69419"/>
<stop offset="0.6319" stop-color="#E6A500"/>
</linearGradient>
<linearGradient id="paint1_linear_2337_20992" x1="373.743" y1="69.3417" x2="411.281" y2="84.02" gradientUnits="userSpaceOnUse">
<stop stop-color="#651241"/>
<stop offset="0.0758363" stop-color="#733244"/>
<stop offset="0.5475" stop-color="#E6A500"/>
</linearGradient>
<clipPath id="clip0_2337_20992">
<rect width="1024" height="237" fill="white"/>
</clipPath>
</defs>
</svg>
