<svg width="660" height="99" viewBox="0 0 660 99" fill="none" xmlns="http://www.w3.org/2000/svg">
<g clip-path="url(#clip0_2488_21343)">
<path d="M497.36 41.0001L497.53 41.2401L497.33 43.4501H488.5L488.65 39.2501L488.5 29.3701H497.42L497.6 29.6101L497.37 31.8201L494 31.6601H491.46L491.39 35.0501H493.83L496.12 34.9901L496.29 35.2101L496.1 37.4101L493.61 37.3501H491.35V38.8601L491.41 40.9801H493.89L497.36 41.0001Z" fill="#CC9741"/>
<path d="M508.81 29.8804L508.33 32.4404L507.9 32.6105C507.421 32.2683 506.9 31.9894 506.35 31.7805C505.89 31.5877 505.398 31.4825 504.9 31.4705C504.389 31.4455 503.888 31.6173 503.5 31.9505C503.346 32.0794 503.222 32.2399 503.136 32.4211C503.05 32.6022 503.003 32.7998 503 33.0005C503.003 33.2128 503.056 33.4214 503.155 33.6092C503.254 33.7969 503.396 33.9585 503.57 34.0805C504.148 34.4696 504.76 34.8043 505.4 35.0805C506.087 35.372 506.755 35.706 507.4 36.0805C507.911 36.3997 508.351 36.822 508.69 37.3205C509.055 37.8779 509.24 38.5343 509.22 39.2005C509.225 39.9787 508.999 40.7409 508.57 41.3905C508.097 42.0999 507.431 42.6588 506.65 43.0005C505.777 43.3954 504.828 43.5902 503.87 43.5705C502.431 43.556 501.01 43.2534 499.69 42.6805L500.11 39.9305L500.44 39.7505C500.997 40.2777 501.644 40.701 502.35 41.0005C502.937 41.2469 503.564 41.3826 504.2 41.4005C504.739 41.4294 505.27 41.2664 505.7 40.9404C505.868 40.8024 506.003 40.6282 506.095 40.4309C506.187 40.2335 506.233 40.0181 506.23 39.8005C506.233 39.5791 506.181 39.3605 506.08 39.1636C505.979 38.9667 505.831 38.7974 505.65 38.6704C505.066 38.2749 504.442 37.9398 503.79 37.6704C503.128 37.375 502.483 37.0411 501.86 36.6704C501.353 36.3569 500.92 35.9373 500.59 35.4404C500.228 34.8894 500.046 34.2394 500.07 33.5805C500.065 32.796 500.291 32.0274 500.72 31.3705C501.175 30.6894 501.808 30.1463 502.55 29.8004C503.398 29.4167 504.32 29.2254 505.25 29.2405C506.467 29.2211 507.676 29.4384 508.81 29.8804Z" fill="#CC9741"/>
<path d="M521.5 30.4202C521.915 30.8382 522.237 31.3396 522.444 31.8913C522.651 32.4429 522.738 33.0323 522.7 33.6202C522.719 34.5928 522.478 35.5528 522 36.4002C521.531 37.2012 520.835 37.845 520 38.2502C519.063 38.6947 518.037 38.9172 517 38.9002H515.6V39.0002L515.73 43.4602H512.73L512.88 39.2602L512.73 29.3802H518.12C519.338 29.282 520.548 29.6542 521.5 30.4202ZM519.62 33.8802C519.644 33.5608 519.602 33.2398 519.497 32.9372C519.392 32.6345 519.226 32.3565 519.01 32.1202C518.493 31.6874 517.834 31.4628 517.16 31.4902L515.68 31.5802L515.59 36.6502L517.59 36.7402C518.218 36.5908 518.77 36.2183 519.143 35.6921C519.517 35.166 519.686 34.522 519.62 33.8802Z" fill="#CC9741"/>
<path d="M534.74 41.0001L534.92 41.2401L534.72 43.4501H525.89L526.04 39.2501L525.89 29.3701H534.81L534.98 29.6101L534.76 31.8201L531.4 31.7001H528.86L528.8 35.0901H531.23L533.51 35.0301L533.7 35.2501L533.5 37.4501L531 37.3901H528.75V38.9001L528.82 41.0201H531.29L534.74 41.0001Z" fill="#CC9741"/>
<path d="M547.16 30.0002L546.64 32.4702L546.39 32.5802C545.951 32.2658 545.465 32.0228 544.95 31.8602C544.432 31.6808 543.888 31.5895 543.34 31.5902C541.02 31.5902 539.86 33.1202 539.86 36.1602C539.766 37.4618 540.084 38.7599 540.77 39.8702C541.075 40.2797 541.477 40.6073 541.939 40.8237C542.401 41.0401 542.91 41.1385 543.42 41.1102C543.989 41.1027 544.554 41.0186 545.1 40.8602C545.645 40.6914 546.168 40.4598 546.66 40.1702L546.92 40.3202L546.68 42.8302C545.585 43.3422 544.389 43.6019 543.18 43.5902C542.295 43.6519 541.407 43.5202 540.578 43.2042C539.749 42.8881 538.999 42.3954 538.38 41.7602C537.192 40.2707 536.604 38.3912 536.73 36.4902C536.609 34.5228 537.238 32.5828 538.49 31.0602C539.138 30.403 539.92 29.8925 540.783 29.563C541.645 29.2335 542.568 29.0928 543.49 29.1502C544.764 29.1323 546.023 29.4239 547.16 30.0002Z" fill="#CC9741"/>
<path d="M553.06 39.0004L553.2 43.4604H550.2L550.36 39.2604L550.2 29.3804H553.2L553.06 39.0004Z" fill="#CC9741"/>
<path d="M568.83 43.4101H565.83L565.48 41.5701L565.11 40.2601L562.35 40.2001L559.92 40.2601L559.55 41.4201L559.18 43.4201H556.25L561 29.3301H564.52L568.83 43.4101ZM564.46 38.0001L562.8 32.1501H562.6L560.67 38.0001H562.55H564.46Z" fill="#CC9741"/>
<path d="M579.7 41.2001L579.5 43.4101H571.89L572.04 39.2101L571.89 29.3301H574.89L574.73 39.0001L574.8 41.0001H579.52L579.7 41.2001Z" fill="#CC9741"/>
<path d="M585.38 39.0004L585.51 43.4604H582.51L582.66 39.2604L582.51 29.3804H585.51L585.38 39.0004Z" fill="#CC9741"/>
<path d="M598.18 29.8804L597.69 32.4404L597.25 32.6104C596.776 32.2664 596.258 31.9873 595.71 31.7804C595.25 31.5876 594.758 31.4825 594.26 31.4704C593.749 31.4455 593.248 31.6173 592.86 31.9504C592.697 32.0777 592.565 32.2399 592.473 32.4251C592.382 32.6103 592.333 32.8137 592.33 33.0204C592.335 33.2334 592.39 33.4423 592.49 33.63C592.591 33.8177 592.735 33.9789 592.91 34.1004C593.488 34.4895 594.1 34.8243 594.74 35.1004C595.427 35.3919 596.095 35.7259 596.74 36.1004C597.245 36.4345 597.674 36.8705 598 37.3804C598.365 37.9379 598.55 38.5942 598.53 39.2604C598.535 40.0386 598.309 40.8009 597.88 41.4504C597.41 42.1319 596.759 42.6687 596 43.0004C595.127 43.3954 594.178 43.5901 593.22 43.5704C591.784 43.559 590.365 43.2562 589.05 42.6804L589.46 39.9304L589.78 39.7504C590.345 40.2768 590.999 40.6999 591.71 41.0004C592.297 41.2458 592.924 41.3814 593.56 41.4004C594.096 41.4314 594.625 41.268 595.05 40.9404C595.219 40.8028 595.356 40.629 595.449 40.4317C595.543 40.2344 595.591 40.0187 595.59 39.8004C595.591 39.5794 595.539 39.3613 595.438 39.1647C595.337 38.968 595.19 38.7985 595.01 38.6704C594.423 38.273 593.796 37.9379 593.14 37.6704C592.481 37.3752 591.84 37.0413 591.22 36.6704C590.722 36.3289 590.305 35.8816 590 35.3604C589.627 34.8134 589.438 34.162 589.46 33.5004C589.458 32.7149 589.688 31.9463 590.12 31.2904C590.576 30.6069 591.213 30.0634 591.96 29.7204C592.801 29.3376 593.716 29.1464 594.64 29.1604C595.855 29.1715 597.057 29.4159 598.18 29.8804Z" fill="#CC9741"/>
<path d="M610.76 29.5704L610.59 31.7804L608 31.6504H607.12L607 39.0004L607.13 43.4604H604.13L604.28 39.2604L604.17 31.7004H603.3L600.61 31.8304L600.41 31.5904L600.61 29.3804H610.61L610.76 29.5704Z" fill="#CC9741"/>
<path d="M623.82 43.4101H620.82L620.46 41.5701L620.09 40.2601L617.33 40.2001L614.91 40.2601L614.54 41.4201L614.16 43.4201H611.24L616 29.3301H619.51L623.82 43.4101ZM619.45 38.0001L617.79 32.1501H617.59L615.66 38.0001H617.54H619.45Z" fill="#CC9741"/>
<path d="M497.36 68.3002L497.53 68.5302L497.33 70.7402H488.5L488.65 66.5402L488.5 56.6602H497.42L497.6 56.9002L497.37 59.1102L494 59.0002H491.46L491.39 62.3902L493.83 62.4402L496.12 62.3702L496.29 62.5902L496.1 64.7902L493.61 64.7302H491.35V66.2402L491.41 68.3602H493.89L497.36 68.3002Z" fill="#CC9741"/>
<path d="M515.39 70.7402H512.77L512.55 66.4802L512 61.0602H511.79L508.64 69.2502H506.35L503.48 61.0602H503.28L502.74 66.2002L502.43 70.7402H500L501.42 56.6602H504.83L505.4 58.7302L507.63 65.4102H507.83L510.17 58.7302L510.8 56.6602H514.15L515.39 70.7402Z" fill="#CC9741"/>
<path d="M532.44 57.7503C532.852 58.1684 533.17 58.6687 533.375 59.2184C533.58 59.768 533.667 60.3548 533.63 60.9403C533.649 61.9161 533.408 62.8793 532.93 63.7303C532.46 64.5302 531.764 65.1737 530.93 65.5803C529.995 66.0304 528.968 66.2564 527.93 66.2403H526.53L526.66 70.7003H523.66L523.82 66.5003L523.66 56.6203H529.07C530.296 56.5539 531.502 56.9581 532.44 57.7503ZM530.55 61.2103C530.575 60.8908 530.533 60.5696 530.429 60.2667C530.324 59.9639 530.157 59.686 529.94 59.4503C529.428 59.0165 528.771 58.7915 528.1 58.8203L526.61 58.9103L526.52 64.0003L528.52 64.0903C529.153 63.9425 529.709 63.5675 530.083 63.0366C530.457 62.5057 530.623 61.8558 530.55 61.2103Z" fill="#CC9741"/>
<path d="M547.6 70.0001L547.55 70.3301C546.615 70.6604 545.639 70.859 544.65 70.9201L544.34 70.6801C543.29 68.8701 542.44 67.3001 541.78 65.9501H539.67V66.2401L539.79 70.7001H536.79L536.94 66.5001L536.79 56.6201H542.19C543.423 56.5345 544.641 56.9206 545.6 57.7001C546.009 58.0995 546.328 58.5819 546.535 59.1149C546.742 59.648 546.832 60.2192 546.8 60.7901C546.81 61.6655 546.571 62.5257 546.11 63.2701C545.639 64.0441 544.973 64.6818 544.18 65.1201C545.34 66.9468 546.48 68.5734 547.6 70.0001ZM539.71 63.6601L541.87 63.7501C542.443 63.5857 542.942 63.2279 543.281 62.7375C543.62 62.2471 543.779 61.6543 543.73 61.0601C543.752 60.7538 543.71 60.4461 543.607 60.1569C543.504 59.8676 543.341 59.6031 543.13 59.3801C542.604 58.9663 541.948 58.7535 541.28 58.7801L539.79 58.8701L539.71 63.6601Z" fill="#CC9741"/>
<path d="M559.67 68.3002L559.84 68.5302L559.65 70.7402H550.81L550.97 66.5402L550.81 56.6602H559.74L559.9 56.9002L559.69 59.1102L556.32 59.0002H553.79L553.72 62.3902L556.15 62.4402L558.44 62.3702L558.62 62.5902L558.42 64.7902L555.93 64.7302H553.67V66.2402L553.73 68.3602H556.2L559.67 68.3002Z" fill="#CC9741"/>
<path d="M569.39 70.7402H565.86L561.55 56.6602H564.55L564.9 58.5102L567.58 68.0002H567.78L570.84 58.6802L571.21 56.6802H574.14L569.39 70.7402Z" fill="#CC9741"/>
<path d="M579.72 66.2802L579.85 70.7402H576.85L577 66.5402L576.85 56.6602H579.85L579.72 66.2802Z" fill="#CC9741"/>
<path d="M594.78 58.2802C595.362 58.9493 595.806 59.7263 596.087 60.5671C596.369 61.4078 596.482 62.2958 596.42 63.1802C596.561 65.2505 595.907 67.2965 594.59 68.9002C593.908 69.5884 593.087 70.1228 592.181 70.4678C591.276 70.8127 590.307 70.9601 589.34 70.9002C588.65 70.9002 587.83 70.9002 586.88 70.8502C585.93 70.8002 585.11 70.7802 584.42 70.7402L584.57 66.5402L584.42 56.6602L590.08 56.5702C590.939 56.5132 591.801 56.6359 592.61 56.9303C593.419 57.2247 594.158 57.6844 594.78 58.2802ZM593.34 63.8502C593.441 62.5444 593.148 61.2384 592.5 60.1002C592.193 59.7007 591.79 59.385 591.328 59.1822C590.867 58.9795 590.362 58.8963 589.86 58.9402C589.09 58.9402 588.26 58.9402 587.39 59.0502L587.26 66.2802L587.32 68.4402C588.163 68.5378 589.011 68.5912 589.86 68.6002C592.18 68.6002 593.34 67.0002 593.34 63.8502Z" fill="#CC9741"/>
<path d="M608.58 68.3001L608.75 68.5301L608.56 70.7401H599.73L599.87 66.5401L599.73 56.6601H608.64L608.82 56.9001L608.6 59.1101L605.23 59.0001H602.7L602.63 62.3901L605.06 62.4401L607.35 62.3701L607.53 62.5901L607.33 64.7901L604.84 64.7301H602.59V66.2401L602.65 68.3601H605.12L608.58 68.3001ZM601 53.6601C602.02 52.9704 602.993 52.212 603.91 51.3901H604.49C605.49 52.2601 606.49 53.0201 607.43 53.6601L606.9 54.8201H606.62L606.05 54.4901C605.44 54.1601 604.82 53.8101 604.22 53.4901C603.66 53.8201 602.86 54.2801 601.81 54.8601H601.52L601 53.6601Z" fill="#CC9741"/>
<path d="M623.58 66.3901L623.69 70.7401H620.5L614.75 61.2101H614.57V65.8901L614.65 70.7401H611.96L612.12 66.5801L612 56.6601H615.18L620.93 66.2001H621.12L621 56.7901L623.73 56.6201L623.58 66.3901Z" fill="#CC9741"/>
<path d="M637.38 57.3404L636.85 59.8104L636.61 59.9104C636.164 59.6074 635.68 59.3653 635.17 59.1904C634.646 59.0231 634.1 58.9387 633.55 58.9404C631.23 58.9404 630.07 60.4604 630.07 63.5004C629.976 64.802 630.294 66.1001 630.98 67.2104C631.285 67.6188 631.687 67.9449 632.15 68.1596C632.612 68.3743 633.121 68.4708 633.63 68.4404C634.199 68.4372 634.765 68.353 635.31 68.1904C635.858 68.0335 636.382 67.8049 636.87 67.5104L637.13 67.6604L636.89 70.1704C635.799 70.6844 634.606 70.9475 633.4 70.9404C632.514 71.0002 631.626 70.8666 630.797 70.5488C629.969 70.2311 629.219 69.7369 628.6 69.1004C627.424 67.607 626.853 65.7257 627 63.8304C626.872 61.8669 627.498 59.9285 628.75 58.4104C629.396 57.748 630.176 57.2327 631.039 56.8996C631.902 56.5666 632.827 56.4236 633.75 56.4804C635.011 56.4736 636.256 56.7684 637.38 57.3404Z" fill="#CC9741"/>
<path d="M643.28 66.2802L643.41 70.7402H640.41L640.56 66.5402L640.41 56.6602H643.41L643.28 66.2802Z" fill="#CC9741"/>
<path d="M659 70.7404H656L655.64 68.9004L655.28 67.5904L652.52 67.5304L650.09 67.5904L649.72 68.7504L649.35 70.7504H646.42L651.18 56.6704H654.7L659 70.7404ZM654.63 65.3004L653 59.4404H652.8L650.88 65.3004H652.76H654.63Z" fill="#CC9741"/>
<path d="M497.84 84.6703L497.31 87.1303L497.07 87.2503C496.63 86.9377 496.144 86.6949 495.63 86.5303C495.108 86.355 494.561 86.2672 494.01 86.2703C491.69 86.2703 490.53 87.7903 490.53 90.8303C490.436 92.1319 490.754 93.43 491.44 94.5403C491.747 94.95 492.15 95.2775 492.615 95.4938C493.079 95.7101 493.589 95.8085 494.1 95.7803C494.665 95.7728 495.227 95.6887 495.77 95.5303C496.32 95.3705 496.845 95.1349 497.33 94.8303L497.6 94.9903L497.36 97.5003C496.263 98.0088 495.069 98.2716 493.86 98.2703C492.975 98.3314 492.087 98.1993 491.259 97.8833C490.43 97.5673 489.68 97.075 489.06 96.4403C487.873 94.9464 487.285 93.0642 487.41 91.1603C487.283 89.1952 487.913 87.2559 489.17 85.7403C489.814 85.0763 490.595 84.5599 491.458 84.2267C492.321 83.8935 493.247 83.7515 494.17 83.8103C495.445 83.7971 496.704 84.0921 497.84 84.6703Z" fill="#CC9741"/>
<path d="M511.05 85.6001C512.21 87.0482 512.785 88.8789 512.66 90.7301C512.792 92.7493 512.168 94.7454 510.91 96.3301C510.283 97.0048 509.516 97.5336 508.662 97.8792C507.809 98.2248 506.89 98.3787 505.97 98.3301C505.12 98.3791 504.27 98.2385 503.482 97.9186C502.693 97.5986 501.985 97.1073 501.41 96.4801C500.251 94.9927 499.678 93.1318 499.8 91.2501C499.678 89.2676 500.299 87.3107 501.54 85.7601C502.173 85.1005 502.942 84.5863 503.793 84.2531C504.644 83.9198 505.558 83.7755 506.47 83.8301C507.316 83.7729 508.165 83.9017 508.956 84.2075C509.747 84.5133 510.462 84.9886 511.05 85.6001ZM503.68 87.2701C503.065 88.3505 502.79 89.591 502.89 90.8301C502.785 92.2083 503.051 93.5895 503.66 94.8301C503.946 95.2378 504.333 95.5633 504.784 95.7739C505.236 95.9845 505.734 96.0729 506.23 96.0301C506.711 96.0712 507.195 95.9922 507.639 95.8002C508.082 95.6082 508.471 95.3093 508.77 94.9301C509.382 93.8271 509.654 92.5674 509.55 91.3101C509.664 89.9314 509.398 88.5479 508.78 87.3101C508.494 86.9035 508.106 86.5794 507.655 86.3705C507.203 86.1616 506.705 86.0752 506.21 86.1201C505.726 86.0828 505.239 86.1687 504.797 86.3698C504.355 86.5708 503.97 86.8806 503.68 87.2701Z" fill="#CC9741"/>
<path d="M530.72 98.07H528.1L527.88 93.81L527.37 88.39H527.16L524 96.58H521.71L518.84 88.39H518.65L518.1 93.53L517.79 98.07H515.3L516.73 84H520.14L520.71 86.08L522.93 92.75H523.14L525.47 86.08L526.1 84H529.45L530.72 98.07Z" fill="#CC9741"/>
<path d="M543.36 85.0903C543.775 85.5061 544.097 86.0057 544.304 86.5558C544.511 87.1059 544.598 87.6939 544.56 88.2803C544.579 89.2529 544.338 90.2129 543.86 91.0603C543.392 91.8625 542.696 92.5067 541.86 92.9103C540.91 93.3699 539.865 93.5961 538.81 93.5703H537.41L537.54 98.0303H534.54L534.69 93.8303L534.57 84.0003H539.97C541.199 83.9071 542.416 84.2983 543.36 85.0903ZM541.48 88.5403C541.506 88.2207 541.465 87.8991 541.36 87.5961C541.255 87.2931 541.088 87.0153 540.87 86.7803C540.356 86.3501 539.699 86.1288 539.03 86.1603L537.54 86.2403L537.45 91.3103L539.45 91.4103C540.08 91.2607 540.633 90.8868 541.007 90.3585C541.38 89.8302 541.549 89.1838 541.48 88.5403Z" fill="#CC9741"/>
<path d="M555.47 95.86L555.28 98.07H547.67L547.81 93.87L547.67 84H550.67L550.49 93.62L550.56 95.62H555.29L555.47 95.86Z" fill="#CC9741"/>
<path d="M567.17 95.62L567.35 95.86L567.14 98.07H558.32L558.47 93.87L558.32 84H567.24L567.41 84.24L567.19 86.45L563.82 86.34H561.29L561.22 89.73H563.65L565.94 89.67L566.12 89.89L565.92 92.1L563.43 92.03H561.18V93.53L561.24 95.65H563.71L567.17 95.62Z" fill="#CC9741"/>
<path d="M585.2 98.0702H582.58L582.36 93.8102L581.86 88.3902H581.64L578.49 96.5802H576.2L573.33 88.3902H573.14L572.59 93.5302L572.29 98.0702H569.79L571.22 84.0002H574.63L575.19 86.0802L577.42 92.7502H577.62L580 86.0702L580.63 83.9902H583.98L585.2 98.0702Z" fill="#CC9741"/>
<path d="M597.91 95.62L598.08 95.86L597.89 98.07H589.06L589.21 93.87L589.06 84H598L598.17 84.24L597.95 86.45L594.59 86.34H592.05L592 89.74H594.43L596.73 89.68L596.9 89.9L596.7 92.11L594.21 92.04H591.96V93.54L592.02 95.66H594.49L597.91 95.62Z" fill="#CC9741"/>
<path d="M612.91 93.7205L613.02 98.0704H609.83L604.07 88.5405H603.9V93.2205L603.99 98.0704H601.31L601.46 93.9204L601.3 84.0005H604.46L610.21 93.5405H610.41L610.35 84.1304L613.08 83.9604L612.91 93.7205Z" fill="#CC9741"/>
<path d="M626.4 84.2302L626.22 86.4402L623.58 86.3102H622.7L622.59 93.6102L622.72 98.0702H619.72L619.87 93.8702L619.76 86.3102H618.89L616.2 86.4402L616 86.2002L616.19 83.9902H626.19L626.4 84.2302Z" fill="#CC9741"/>
<path d="M639.45 98.07H636.45L636.11 96.23L635.73 94.92L633 94.86L630.57 94.92L630.2 96.08L629.83 98.08H626.9L631.63 84H635.14L639.45 98.07ZM635.08 92.63L633.41 86.77H633.22L631.29 92.63H633.18H635.08Z" fill="#CC9741"/>
<path d="M653.38 97.3704V97.7004C652.442 98.0316 651.463 98.2302 650.47 98.2904L650.17 98.0504C649.123 96.2371 648.27 94.6637 647.61 93.3304H645.49V93.6104L645.62 98.0704H642.62L642.78 93.8704L642.59 84.0004H647.99C649.225 83.9192 650.446 84.3047 651.41 85.0804C651.821 85.4809 652.14 85.965 652.347 86.4998C652.554 87.0347 652.644 87.6078 652.61 88.1804C652.619 89.0525 652.379 89.9091 651.92 90.6504C651.445 91.413 650.785 92.0426 650 92.4804C651.13 94.2804 652.26 95.9204 653.38 97.3704ZM645.48 91.0004L647.65 91.0904C648.222 90.9257 648.72 90.5675 649.057 90.0769C649.394 89.5862 649.551 88.9937 649.5 88.4004C649.524 88.0947 649.483 87.7876 649.382 87.4983C649.28 87.2091 649.119 86.9442 648.91 86.7204C648.382 86.3117 647.727 86.1027 647.06 86.1304L645.57 86.2104L645.48 91.0004Z" fill="#CC9741"/>
<path d="M270.73 97.9201H266L265.44 95.0001L264.85 93.0001L260.52 92.9001L256.71 93.0001L256.12 94.8201L255.53 97.9501H250.92L258.42 75.8101H264L270.73 97.9201ZM263.86 89.3601L261.24 80.1501H260.94L257.94 89.3601L260.89 89.4301L263.86 89.3601Z" fill="white"/>
<path d="M293.7 78.3204C295.42 80.1137 296.28 82.6804 296.28 86.0204C296.28 89.9537 295.317 92.9537 293.39 95.0204C291.46 97.1104 288.72 98.1504 285.14 98.1504C284.07 98.1504 282.77 98.1504 281.27 98.0804C279.77 98.0104 278.48 97.9804 277.4 97.9104L277.64 91.3104L277.4 75.7704L286.31 75.6304C289.523 75.637 291.987 76.5337 293.7 78.3204ZM291.43 87.0904C291.43 84.3904 290.99 82.4237 290.11 81.1904C289.63 80.5683 289.003 80.0747 288.286 79.7536C287.569 79.4326 286.784 79.294 286 79.3504C284.78 79.3504 283.49 79.4104 282.11 79.5304L281.91 90.9104L282.01 94.3104C283.61 94.4704 284.94 94.5604 286.01 94.5604C289.61 94.5604 291.43 92.0604 291.43 87.0904Z" fill="white"/>
<path d="M312.58 97.9203H307L300.23 75.7803H305L305.55 78.7003L309.75 93.5903H310L314.81 78.9403L315.4 75.7803H320L312.58 97.9203Z" fill="white"/>
<path d="M341.38 78.3104C343.07 80.2004 343.91 82.8804 343.91 86.3704C343.91 90.1704 342.99 93.1104 341.16 95.1704C339.33 97.2304 336.73 98.2704 333.38 98.2704C332.045 98.3475 330.71 98.1264 329.472 97.6231C328.233 97.1197 327.122 96.3467 326.22 95.3604C324.53 93.4204 323.69 90.6804 323.69 87.1204C323.69 83.3937 324.6 80.517 326.42 78.4904C328.24 76.4637 330.827 75.4637 334.18 75.4904C335.513 75.4049 336.849 75.6132 338.093 76.1005C339.337 76.5877 340.459 77.3421 341.38 78.3104ZM329.78 80.9304C328.947 82.077 328.533 83.9504 328.54 86.5504C328.54 89.5504 328.94 91.6104 329.76 92.8704C330.203 93.5076 330.806 94.0174 331.508 94.349C332.21 94.6807 332.986 94.8225 333.76 94.7604C334.518 94.826 335.28 94.7023 335.978 94.4004C336.677 94.0984 337.289 93.6276 337.76 93.0304C338.58 91.8604 339 89.9704 339 87.3304C339 84.4237 338.59 82.3437 337.77 81.0904C337.324 80.4576 336.72 79.9522 336.018 79.6242C335.317 79.2963 334.542 79.1571 333.77 79.2204C333.015 79.1522 332.255 79.2729 331.559 79.5714C330.862 79.8699 330.251 80.3369 329.78 80.9304Z" fill="white"/>
<path d="M367.29 76.8501L366.29 81.0401L365.83 81.1101C364.884 80.539 363.878 80.0729 362.83 79.7201C361.913 79.4222 360.954 79.2737 359.99 79.2801C359.153 79.2108 358.312 79.3405 357.535 79.6585C356.758 79.9766 356.068 80.474 355.52 81.1101C354.58 82.3167 354.11 84.3167 354.11 87.1101C354.054 88.5913 354.261 90.0707 354.72 91.4801C355.041 92.4623 355.705 93.2963 356.59 93.8301C357.626 94.376 358.79 94.635 359.96 94.5801C360.416 94.5803 360.87 94.5435 361.32 94.4701C361.847 94.3739 362.368 94.247 362.88 94.0901L362.95 92.2001L362.88 88.6901L367.18 88.3801L367.08 91.4801L367.18 96.8801C364.737 97.7414 362.17 98.204 359.58 98.2501C356.14 98.2501 353.58 97.3101 351.82 95.4301C350.06 93.5501 349.23 90.8601 349.23 87.3501C349.23 83.5234 350.23 80.5967 352.23 78.5701C354.23 76.5701 357.08 75.5701 360.77 75.5701C363.011 75.509 365.238 75.9462 367.29 76.8501Z" fill="white"/>
<path d="M392.05 97.9201H387.31L386.76 95.0001L386.17 93.0001L381.84 92.9001L378 93.0001L377.42 94.8201L376.83 97.9501H372.23L379.72 75.8101H385.26L392.05 97.9201ZM385.17 89.3601L382.56 80.1501H382.25L379.25 89.3601L382.2 89.4301L385.17 89.3601Z" fill="white"/>
<path d="M415 78.3204C416.733 80.107 417.6 82.667 417.6 86.0004C417.6 89.9337 416.637 92.9337 414.71 95.0004C412.783 97.067 410.033 98.1103 406.46 98.1303C405.38 98.1303 404.09 98.1303 402.59 98.0603C401.09 97.9903 399.8 97.9604 398.72 97.8904L398.96 91.2904L398.72 75.7504L407.63 75.6104C410.837 75.6304 413.293 76.5337 415 78.3204ZM412.73 87.0903C412.73 84.3903 412.29 82.4237 411.41 81.1904C410.924 80.5651 410.29 80.0698 409.566 79.7487C408.842 79.4277 408.05 79.2908 407.26 79.3503C406.05 79.3503 404.75 79.4103 403.38 79.5303L403.17 90.9104L403.28 94.3103C404.88 94.4703 406.21 94.5603 407.28 94.5603C410.93 94.5603 412.75 92.0603 412.75 87.0903H412.73Z" fill="white"/>
<path d="M440.66 78.31C442.34 80.2 443.18 82.88 443.18 86.37C443.18 90.17 442.27 93.11 440.43 95.17C438.59 97.23 436.01 98.27 432.66 98.27C431.324 98.3487 429.987 98.1283 428.746 97.6249C427.506 97.1215 426.393 96.3477 425.49 95.36C423.8 93.42 422.96 90.68 422.96 87.12C422.96 83.3933 423.87 80.5167 425.69 78.49C427.51 76.4633 430.097 75.4633 433.45 75.49C434.785 75.4031 436.123 75.6106 437.369 76.0979C438.615 76.5852 439.738 77.3404 440.66 78.31ZM429.05 80.93C428.22 82.08 427.82 83.93 427.82 86.55C427.82 89.4967 428.223 91.6033 429.03 92.87C429.475 93.5057 430.078 94.0144 430.779 94.3459C431.481 94.6774 432.256 94.8201 433.03 94.76C433.788 94.8284 434.551 94.706 435.25 94.4038C435.949 94.1016 436.561 93.6293 437.03 93.03C437.86 91.86 438.27 89.97 438.27 87.33C438.27 84.4233 437.863 82.3433 437.05 81.09C436.604 80.4572 436 79.9518 435.298 79.6239C434.597 79.2959 433.822 79.1567 433.05 79.22C432.294 79.152 431.533 79.2726 430.835 79.571C430.136 79.8695 429.523 80.3364 429.05 80.93Z" fill="white"/>
<path d="M463 76.6402L462.24 80.6402L461.56 80.9102C460.803 80.3844 459.988 79.9482 459.13 79.6102C458.402 79.3126 457.626 79.1499 456.84 79.1302C456.039 79.0858 455.251 79.3507 454.64 79.8702C454.386 80.0754 454.179 80.334 454.036 80.6278C453.892 80.9216 453.815 81.2433 453.81 81.5702C453.815 81.9053 453.901 82.2342 454.062 82.5286C454.222 82.823 454.451 83.074 454.73 83.2602C455.635 83.8848 456.595 84.4238 457.6 84.8702C458.657 85.3389 459.686 85.8698 460.68 86.4602C461.479 86.9805 462.16 87.6616 462.68 88.4602C463.276 89.344 463.574 90.3952 463.53 91.4602C463.55 92.6845 463.202 93.8866 462.53 94.9102C461.8 95.9902 460.786 96.8482 459.6 97.3902C458.231 98.0189 456.737 98.33 455.23 98.3002C452.97 98.2865 450.736 97.8064 448.67 96.8902L449.32 92.5602L449.84 92.2902C450.728 93.0692 451.743 93.6914 452.84 94.1302C453.764 94.5154 454.75 94.7289 455.75 94.7602C456.601 94.8156 457.443 94.5518 458.11 94.0202C458.372 93.8061 458.583 93.5359 458.726 93.2296C458.87 92.9232 458.943 92.5885 458.94 92.2502C458.95 91.902 458.873 91.5568 458.716 91.2459C458.559 90.935 458.326 90.6684 458.04 90.4702C457.114 89.8255 456.13 89.2697 455.1 88.8102C454.07 88.3579 453.068 87.8437 452.1 87.2702C451.309 86.7694 450.629 86.1127 450.1 85.3402C449.527 84.4764 449.237 83.456 449.27 82.4202C449.241 81.1822 449.59 79.9648 450.27 78.9302C450.984 77.8574 451.981 77.0027 453.15 76.4602C454.475 75.8501 455.921 75.5459 457.38 75.5702C459.305 75.5561 461.215 75.9197 463 76.6402Z" fill="white"/>
<path d="M8.37 40.5104H26.51V47.2704H0V1.15039H8.37V40.5104Z" fill="white"/>
<path d="M34.05 30.3904V1.15039H42.43V29.3404C42.43 37.3404 46.26 41.2004 52.89 41.2004C59.8 41.2004 63.22 37.2904 63.22 29.4804V1.15039H71.59V30.1504C71.59 41.6704 65.1 48.1504 52.59 48.1504C40.4 48.1104 34.05 41.8304 34.05 30.3904Z" fill="white"/>
<path d="M82.88 47.2704V1.15039H91.25V47.2704H82.88Z" fill="white"/>
<path d="M101 36.0004L109.09 33.9104C110 38.3704 113.91 41.1704 119.84 41.1704C124.84 41.1704 127.84 39.1704 127.84 35.5104C127.84 32.7904 126.3 31.5104 121.48 29.5804L112.28 26.2304C105.78 23.9304 102.5 19.8804 102.5 14.0204C102.5 9.55037 104.18 6.20037 107.5 3.90037C111.041 1.50871 115.238 0.27847 119.51 0.380367C126.69 0.380367 134.43 3.38037 135.21 12.6604L127.53 14.6604C126.83 9.7737 123.83 7.33037 118.53 7.33037C114.28 7.33037 111.07 9.21037 111.07 12.7704C111.07 15.3604 113.16 17.3804 117.28 18.8404L125.37 21.5604C132.7 24.0104 136.37 28.3304 136.37 34.4104C136.405 36.3242 135.987 38.2192 135.152 39.9413C134.316 41.6633 133.085 43.1637 131.56 44.3204C128.41 46.8304 124.09 48.0804 118.65 48.0804C108.61 48.0004 102.33 43.5804 101 36.0004Z" fill="white"/>
<path d="M242.31 23.59C242.31 8.23 250.33 0 264 0C277.67 0 285.91 8.23 285.91 23.23C285.91 30.98 283.91 36.98 279.91 41.23C275.91 45.48 270.55 47.65 263.78 47.65C250.47 47.66 242.31 39.14 242.31 23.59ZM277.31 23.38C277.31 12.49 272.63 6.9 264.06 6.9C255.68 6.9 250.93 12.42 250.93 23.59C250.93 34.76 255.75 40.75 263.93 40.75C272.25 40.75 277.27 34.54 277.27 23.38H277.31Z" fill="white"/>
<path d="M330.65 40.4L330.16 47.52C325.072 47.6374 320.028 46.5621 315.43 44.38C313.81 43.4551 312.32 42.3185 311 41C308.828 38.7069 307.099 36.0319 305.9 33.11H303V46.89H294.62V0.77002H307.75C321.75 0.77002 328.82 6.14002 328.82 16.95C328.82 26.17 322.95 31.47 313.68 32.79C317.24 37.19 323.18 40.33 330.65 40.4ZM303 7.60002V26.6H308C315.26 26.6 320.28 23.95 320.28 17.46C320.28 10.97 316.28 7.62002 308.28 7.62002L303 7.60002Z" fill="white"/>
<path d="M417.3 7.60002H398V22.4H412.44V28.82H398V40.05H417.3V46.89H389.6V0.77002H417.3V7.60002Z" fill="white"/>
<path d="M425.88 35.5902L433.98 33.4902C434.88 37.9602 438.79 40.7502 444.72 40.7502C449.72 40.7502 452.72 38.7502 452.72 35.1002C452.72 32.3802 451.18 31.1002 446.37 29.1602L437.15 25.8202C430.66 23.5102 427.38 19.4702 427.38 13.6102C427.38 9.14023 429.06 5.79023 432.38 3.49023C435.916 1.10829 440.108 -0.111658 444.37 0.000226025C451.56 0.000226025 459.31 3.00023 460.08 12.2802L452.4 14.2802C451.733 9.40023 448.733 6.95689 443.4 6.95023C439.15 6.95023 435.94 8.84023 435.94 12.4002C435.94 14.9902 438.03 17.0002 442.15 18.4702L450.25 21.1902C457.57 23.6402 461.25 27.9602 461.25 34.0302C461.286 35.9442 460.869 37.8395 460.033 39.5617C459.197 41.2838 457.966 42.7841 456.44 43.9402C453.3 46.4502 448.97 47.7102 443.53 47.7102C433.49 47.6602 427.21 43.1902 425.88 35.5902Z" fill="white"/>
<path d="M222.14 0.340332H219.5L207.56 28.6003L196.54 0.340332H193.95L191.04 6.96033L195.35 17.5703L206.24 44.5103H208.61L219.98 16.8003L231.01 47.1603H239.24L222.14 0.340332Z" fill="white"/>
<path d="M372.71 46.8804L369.44 39.4804H348.44L345.3 46.8804H337.4L357.92 0.610352H359.74L380.67 46.8804H372.71ZM351.15 33.2704H366.71L358.83 15.3404L351.15 33.2704Z" fill="white"/>
<path d="M168.08 38.6501L165.12 31.8801H155.64L166.45 6.97012L163.57 0.620117H161.21L140.69 46.8901H149.13L152.7 38.6501H168.08Z" fill="white"/>
<path d="M189.08 12.1802L175.53 47.2702H184.79L193.49 23.6602L189.08 12.1802Z" fill="url(#paint0_linear_2488_21343)"/>
<path d="M168.71 12.0503L164.48 22.1903L175.28 47.2703H184.51L168.71 12.0503Z" fill="url(#paint1_linear_2488_21343)"/>
</g>
<defs>
<linearGradient id="paint0_linear_2488_21343" x1="177.35" y1="44.2202" x2="191.68" y2="22.5402" gradientUnits="userSpaceOnUse">
<stop offset="0.13" stop-color="#651241"/>
<stop offset="0.16" stop-color="#6D1B3D"/>
<stop offset="0.39" stop-color="#AE651C"/>
<stop offset="0.55" stop-color="#D69308"/>
<stop offset="0.63" stop-color="#E6A500"/>
</linearGradient>
<linearGradient id="paint1_linear_2488_21343" x1="163.69" y1="26.4203" x2="182.17" y2="33.6403" gradientUnits="userSpaceOnUse">
<stop stop-color="#651241"/>
<stop offset="0.06" stop-color="#73223A"/>
<stop offset="0.55" stop-color="#E6A500"/>
</linearGradient>
<clipPath id="clip0_2488_21343">
<rect width="659.04" height="98.29" fill="white"/>
</clipPath>
</defs>
</svg>
